<svg width="86" height="86" viewBox="0 0 86 86" fill="none" xmlns="http://www.w3.org/2000/svg">
<path d="M0.707107 43L43 0.707107L85.2929 43L43 85.2929L0.707107 43Z" fill="black" stroke="white"/>
<g filter="url(#filter0_d_30_674)">
<line x1="35.5" y1="48.8" x2="50.5" y2="48.8" stroke="#002195" stroke-width="3" stroke-linecap="round"/>
<line x1="1.5" y1="-1.5" x2="16.0781" y2="-1.5" transform="matrix(-0.534352 0.845262 -0.771566 -0.636149 42.6429 34.1001)" stroke="#002195" stroke-width="3" stroke-linecap="round"/>
<line x1="1.5" y1="-1.5" x2="16.0783" y2="-1.5" transform="matrix(-0.534352 -0.845262 0.771573 -0.63614 52.7529 48.9583)" stroke="#002195" stroke-width="3" stroke-linecap="round"/>
<line x1="1.5" y1="-1.5" x2="15.6209" y2="-1.5" transform="matrix(0.354387 -0.935099 0.944179 0.329434 38.72 36.0097)" stroke="#002195" stroke-width="3" stroke-linecap="round"/>
<line x1="1.5" y1="-1.5" x2="15.6209" y2="-1.5" transform="matrix(0.354387 0.935099 -0.944179 0.329434 41.22 20)" stroke="#002195" stroke-width="3" stroke-linecap="round"/>
<line x1="1.5" y1="-1.5" x2="15.6209" y2="-1.5" transform="matrix(0.354387 0.935099 0.944179 -0.329434 38.72 32.5)" stroke="#002195" stroke-width="3" stroke-linecap="round"/>
<line x1="1.5" y1="-1.5" x2="15.6209" y2="-1.5" transform="matrix(0.354387 -0.935099 -0.944179 -0.329434 41.2874 48.5097)" stroke="#002195" stroke-width="3" stroke-linecap="round"/>
<line x1="42.9985" y1="58.022" x2="27.2534" y2="51.4616" stroke="#002195" stroke-width="3" stroke-linecap="round"/>
<line x1="58.7523" y1="51.4616" x2="43.0073" y2="58.022" stroke="#002195" stroke-width="3" stroke-linecap="round"/>
<line x1="32.5758" y1="42.3242" x2="25.9384" y2="25.0671" stroke="#002195" stroke-width="3" stroke-linecap="round"/>
<line x1="60.0616" y1="25.0671" x2="53.4242" y2="42.3242" stroke="#002195" stroke-width="3" stroke-linecap="round"/>
<line x1="42.8669" y1="71.8375" x2="35.6181" y2="62.6819" stroke="#002195" stroke-width="3" stroke-linecap="round"/>
<line x1="50.389" y1="62.682" x2="43.1402" y2="71.8375" stroke="#002195" stroke-width="3" stroke-linecap="round"/>
</g>
<defs>
<filter id="filter0_d_30_674" x="20.438" y="19.421" width="45.1239" height="61.9166" filterUnits="userSpaceOnUse" color-interpolation-filters="sRGB">
<feFlood flood-opacity="0" result="BackgroundImageFix"/>
<feColorMatrix in="SourceAlpha" type="matrix" values="0 0 0 0 0 0 0 0 0 0 0 0 0 0 0 0 0 0 127 0" result="hardAlpha"/>
<feOffset dy="4"/>
<feGaussianBlur stdDeviation="2"/>
<feComposite in2="hardAlpha" operator="out"/>
<feColorMatrix type="matrix" values="0 0 0 0 0 0 0 0 0 0 0 0 0 0 0 0 0 0 0.25 0"/>
<feBlend mode="normal" in2="BackgroundImageFix" result="effect1_dropShadow_30_674"/>
<feBlend mode="normal" in="SourceGraphic" in2="effect1_dropShadow_30_674" result="shape"/>
</filter>
</defs>
</svg>
